<svg width="26" height="25" viewBox="0 0 26 25" fill="none" xmlns="http://www.w3.org/2000/svg">
<path fill-rule="evenodd" clip-rule="evenodd" d="M6.62014 8.12595C6.62014 8.54733 6.2655 8.88932 5.82853 8.88932C5.39155 8.88932 5.03691 8.54733 5.03691 8.12595C5.03691 5.24449 7.46769 2.89941 10.4568 2.89941C13.4449 2.89941 15.8757 5.24449 15.8757 8.12595C15.8757 11.0074 13.4449 13.3525 10.4568 13.3525C9.23246 13.3525 8.07882 12.9728 7.12255 12.2543C6.77741 11.9947 6.71513 11.5153 6.98428 11.1825C7.25343 10.8507 7.74951 10.7906 8.09465 11.0492C8.77122 11.557 9.58816 11.8258 10.4568 11.8258C12.572 11.8258 14.2925 10.1657 14.2925 8.12595C14.2925 6.08623 12.572 4.42615 10.4568 4.42615C8.34058 4.42615 6.62014 6.08623 6.62014 8.12595ZM16.45 11.4637C16.45 11.0424 16.8046 10.7004 17.2416 10.7004C18.7245 10.7004 19.9299 9.537 19.9299 8.10797C19.9299 6.67894 18.7245 5.51557 17.2416 5.51557C16.8046 5.51557 16.45 5.17358 16.45 4.7522C16.45 4.33082 16.8046 3.98883 17.2416 3.98883C19.5974 3.98883 21.5131 5.8372 21.5131 8.10797C21.5131 10.3798 19.5974 12.2271 17.2416 12.2271C16.8046 12.2271 16.45 11.8851 16.45 11.4637ZM20.7198 14.6032C22.055 14.8567 22.9342 15.3778 23.3163 16.1513C23.634 16.7956 23.634 17.5325 23.3163 18.1768C22.9395 18.9432 22.0613 19.4674 20.7071 19.7351C20.6533 19.7453 20.6005 19.7504 20.5467 19.7504C20.1794 19.7504 19.849 19.502 19.773 19.1407C19.6854 18.7275 19.9609 18.3244 20.3894 18.2399C21.1947 18.0811 21.7404 17.8196 21.8861 17.5223C21.998 17.2944 21.998 17.0338 21.8871 16.8078C21.7383 16.5086 21.1947 16.249 20.3947 16.0974C19.8543 15.9814 19.3202 15.9071 18.7872 15.8724C18.3513 15.8429 18.022 15.4796 18.0526 15.0592C18.0821 14.6368 18.4674 14.3274 18.8959 14.3488C19.507 14.3895 20.1203 14.475 20.7198 14.6032ZM10.4566 15.0689C8.4744 15.0689 2.44336 15.0689 2.44336 18.6954C2.44336 19.5096 2.77795 20.6404 4.36856 21.3936C4.85936 21.6247 5.45466 21.813 6.13755 21.9534C6.56503 22.044 6.98511 21.7784 7.07588 21.3661C7.16771 20.9529 6.89434 20.5478 6.46687 20.4603C5.91063 20.3463 5.43882 20.1987 5.06518 20.0216C4.1448 19.586 4.02659 19.0842 4.02659 18.6954C4.02659 16.959 7.52341 16.5956 10.4566 16.5956C14.7229 16.5956 16.8856 17.2959 16.8856 18.675C16.8856 20.4104 13.3898 20.7738 10.4566 20.7738C10.0196 20.7738 9.66498 21.1158 9.66498 21.5371C9.66498 21.9595 10.0196 22.3005 10.4566 22.3005C12.4377 22.3005 18.4688 22.3005 18.4688 18.675C18.4688 15.4424 13.8964 15.0689 10.4566 15.0689Z" fill="white"/>
</svg>
