<svg width="20" height="19" viewBox="0 0 20 19" fill="none" xmlns="http://www.w3.org/2000/svg">
<path d="M7.34933 12.3755C3.38553 12.3755 0 12.9878 0 15.4351C0 17.8844 3.364 18.5178 7.34933 18.5178C11.3131 18.5178 14.6987 17.9054 14.6987 15.4581C14.6987 13.0089 11.3347 12.3755 7.34933 12.3755Z" fill="#27FFE3"/>
<path d="M7.34935 10.0424C10.049 10.0424 12.2124 7.92375 12.2124 5.27999C12.2124 2.63623 10.049 0.517578 7.34935 0.517578C4.65072 0.517578 2.48633 2.63623 2.48633 5.27999C2.48633 7.92375 4.65072 10.0424 7.34935 10.0424Z" fill="#27FFE3"/>
<path d="M14.1734 5.36631C14.1734 6.71262 13.7605 7.96887 13.0364 9.01238C12.9611 9.1197 13.0276 9.2644 13.1587 9.28739C13.3407 9.3171 13.5276 9.3353 13.7184 9.33914C15.6167 9.38801 17.3202 8.19118 17.7908 6.38874C18.4885 3.71432 16.4415 1.31299 13.8339 1.31299C13.5511 1.31299 13.2801 1.34174 13.0159 1.39444C12.9797 1.4021 12.9405 1.41935 12.921 1.45002C12.8955 1.4893 12.9141 1.54009 12.9395 1.57363C13.7233 2.64972 14.1734 3.95962 14.1734 5.36631Z" fill="#27FFE3"/>
<path d="M19.7791 12.6868C19.4317 11.9614 18.5932 11.4641 17.3172 11.2198C16.7155 11.076 15.0853 10.8719 13.5697 10.9007C13.5472 10.9036 13.5344 10.9189 13.5325 10.9285C13.5295 10.9438 13.5364 10.9668 13.5658 10.9831C14.2663 11.3223 16.9738 12.798 16.6333 15.9103C16.6186 16.0464 16.7292 16.1614 16.8671 16.1422C17.5335 16.0493 19.2478 15.688 19.7791 14.565C20.0736 13.9709 20.0736 13.2809 19.7791 12.6868Z" fill="#27FFE3"/>
</svg>
