<svg width="10" height="10" viewBox="0 0 10 10" fill="none" xmlns="http://www.w3.org/2000/svg">
<g clip-path="url(#clip0)">
<path d="M8.44618 0.303416H6.22646C6.21056 0.143005 6.07518 0.0175781 5.91047 0.0175781H4.08941C3.92469 0.0175781 3.78934 0.143005 3.77344 0.303416H1.55371C1.37827 0.303416 1.23608 0.445608 1.23608 0.621093V1.22456C1.23608 1.40006 1.37827 1.54221 1.55371 1.54221H8.4462C8.62164 1.54221 8.76383 1.40005 8.76383 1.22456V0.621108C8.76381 0.445608 8.62162 0.303416 8.44618 0.303416Z" fill="white"/>
<path d="M1.90198 2.15234V8.6999C1.90198 8.87523 2.04417 9.01754 2.21961 9.01754H7.78033C7.95583 9.01754 8.09791 8.87527 8.09791 8.6999V2.15234H1.90198ZM4.22748 7.06665C4.22748 7.26002 4.07068 7.41686 3.87733 7.41686C3.68387 7.41686 3.52718 7.26003 3.52718 7.06665V3.59508C3.52718 3.40171 3.68387 3.24493 3.87733 3.24493C4.07068 3.24493 4.22748 3.40173 4.22748 3.59508V7.06665ZM6.47284 7.06665C6.47284 7.26002 6.31605 7.41686 6.12263 7.41686C5.92922 7.41686 5.77248 7.26003 5.77248 7.06665V3.59508C5.77248 3.40171 5.92924 3.24493 6.12263 3.24493C6.31603 3.24493 6.47284 3.40173 6.47284 3.59508V7.06665Z" fill="white"/>
</g>
<defs>
<clipPath id="clip0">
<rect width="9" height="9" fill="white" transform="translate(0.5 0.0175781)"/>
</clipPath>
</defs>
</svg>
