<svg width="18" height="17" viewBox="0 0 18 17" fill="none" xmlns="http://www.w3.org/2000/svg">
<path fill-rule="evenodd" clip-rule="evenodd" d="M2.4306 11.9127V6.71338H15.1389V11.9544C15.1389 14.0982 13.7439 15.4163 11.5119 15.4163H6.05058C3.83954 15.4163 2.4306 14.0709 2.4306 11.9127ZM5.93199 10.2327C5.61114 10.2471 5.3461 10.0005 5.33215 9.68704C5.33215 9.37288 5.58324 9.11336 5.90409 9.09902C6.21796 9.09902 6.47603 9.33874 6.48301 9.64538C6.49696 9.96023 6.24586 10.2197 5.93199 10.2327ZM8.79872 10.2327C8.47787 10.2471 8.21282 10.0005 8.19887 9.68704C8.19887 9.37288 8.44997 9.11336 8.77082 9.09902C9.08469 9.09902 9.34276 9.33874 9.34973 9.64538C9.36368 9.96023 9.11259 10.2197 8.79872 10.2327ZM11.6444 12.7459C11.3235 12.7391 11.0655 12.4796 11.0655 12.1654C11.0585 11.8512 11.3165 11.5924 11.6374 11.5856H11.6444C11.9722 11.5856 12.2372 11.8451 12.2372 12.1654C12.2372 12.4864 11.9722 12.7459 11.6444 12.7459ZM8.19887 12.1653C8.21282 12.4795 8.47787 12.726 8.79872 12.7117C9.11259 12.6987 9.36368 12.4392 9.34973 12.125C9.34276 11.8177 9.08469 11.578 8.77082 11.578C8.44997 11.5923 8.19887 11.8512 8.19887 12.1653ZM5.32507 12.1653C5.33902 12.4795 5.60406 12.726 5.92491 12.7117C6.23878 12.6987 6.48988 12.4392 6.47593 12.125C6.46895 11.8177 6.21088 11.578 5.89701 11.578C5.57616 11.5923 5.32507 11.8512 5.32507 12.1653ZM11.0726 9.68018C11.0726 9.36602 11.3237 9.11333 11.6445 9.1065C11.9584 9.1065 12.2095 9.35168 12.2234 9.65286C12.2304 9.96702 11.9793 10.2265 11.6655 10.2327C11.3446 10.2395 11.0796 10.0005 11.0726 9.68701V9.68018Z" fill="white"/>
<path opacity="0.4" d="M2.43292 6.71326C2.44199 6.31237 2.47686 5.51672 2.54243 5.26062C2.87722 3.82026 4.01414 2.9051 5.63929 2.77466H11.9307C13.5419 2.91193 14.6927 3.83324 15.0275 5.26062C15.0924 5.50989 15.1273 6.31168 15.1363 6.71326H2.43292Z" fill="white"/>
<path d="M6.17592 4.89197C6.48282 4.89197 6.71299 4.66728 6.71299 4.36609V2.28376C6.71299 1.98258 6.48282 1.7572 6.17592 1.7572C5.86903 1.7572 5.63885 1.98258 5.63885 2.28376V4.36609C5.63885 4.66728 5.86903 4.89197 6.17592 4.89197Z" fill="white"/>
<path d="M11.3935 4.89197C11.6934 4.89197 11.9305 4.66728 11.9305 4.36609V2.28376C11.9305 1.98258 11.6934 1.7572 11.3935 1.7572C11.0866 1.7572 10.8564 1.98258 10.8564 2.28376V4.36609C10.8564 4.66728 11.0866 4.89197 11.3935 4.89197Z" fill="white"/>
</svg>
