<svg width="16" height="16" viewBox="0 0 16 16" fill="none" xmlns="http://www.w3.org/2000/svg">
<path d="M12.9333 6C12.4666 3.73333 10.4666 2 8 2C7 2 6.06667 2.26667 5.33333 2.8L6.33333 3.8C6.8 3.46667 7.4 3.33333 8 3.33333C10 3.33333 11.6667 5 11.6667 7V7.33333H12.6667C13.8 7.33333 14.6667 8.2 14.6667 9.33333C14.6667 10.0667 14.2667 10.7333 13.6 11.0667L14.6 12.0667C15.4667 11.4667 16 10.4667 16 9.33333C16 7.6 14.6 6.13333 12.9333 6ZM2 2.86667L3.86667 4.66667C1.73333 4.8 0 6.53333 0 8.66667C0 10.8667 1.8 12.6667 4 12.6667H11.8L13.1333 14L14 13.1333L2.86667 2L2 2.86667ZM5.13333 6L10.4667 11.3333H4C2.53333 11.3333 1.33333 10.1333 1.33333 8.66667C1.33333 7.2 2.53333 6 4 6H5.13333Z" fill="white"/>
</svg>
