<svg width="10" height="10" viewBox="0 0 10 10" fill="none" xmlns="http://www.w3.org/2000/svg">
<g clip-path="url(#clip0)">
<path d="M9.11911 1.04885C9.11911 0.47921 8.65748 0.0175781 8.08791 0.0175781H3.77536C3.20579 0.0175781 2.74416 0.47921 2.74416 1.04885V6.11135C2.74416 6.68092 3.20579 7.14256 3.77536 7.14256H8.08791C8.65748 7.14256 9.11911 6.68092 9.11911 6.11135V1.04885ZM7.33788 5.45506H4.52538C4.37013 5.45506 4.24413 5.32906 4.24413 5.17381C4.24413 5.01855 4.37013 4.89256 4.52538 4.89256H7.33788C7.49313 4.89256 7.61913 5.01855 7.61913 5.17381C7.61913 5.32906 7.49313 5.45506 7.33788 5.45506ZM7.33788 4.33006H4.52538C4.37013 4.33006 4.24413 4.20406 4.24413 4.04881C4.24413 3.89355 4.37013 3.76756 4.52538 3.76756H7.33788C7.49313 3.76756 7.61913 3.89355 7.61913 4.04881C7.61913 4.20406 7.49313 4.33006 7.33788 4.33006ZM7.33788 3.20506H4.52538C4.37013 3.20506 4.24413 3.07906 4.24413 2.92381C4.24413 2.76855 4.37013 2.64256 4.52538 2.64256H7.33788C7.49313 2.64256 7.61913 2.76855 7.61913 2.92381C7.61913 3.07906 7.49313 3.20506 7.33788 3.20506Z" fill="white"/>
<path d="M3.77537 7.70508C2.89639 7.70508 2.18166 6.99001 2.18166 6.11137V1.04887C2.18166 1.0166 2.18915 0.986595 2.191 0.955078H1.90041C1.33153 0.955078 0.869141 1.41747 0.869141 1.98635V7.98633C0.869141 8.55521 1.33153 9.0176 1.90041 9.0176H6.40041C6.9693 9.0176 7.43162 8.55521 7.43162 7.98633V7.70508H3.77537Z" fill="white"/>
</g>
<defs>
<clipPath id="clip0">
<rect width="9" height="9" fill="white" transform="translate(0.5 0.0175781)"/>
</clipPath>
</defs>
</svg>
