<svg width="26" height="26" viewBox="0 0 26 26" fill="none" xmlns="http://www.w3.org/2000/svg">
<path opacity="0.4" d="M17.302 2.9845H20.8761C22.3562 2.9845 23.5556 4.15454 23.5556 5.59851V9.08515C23.5556 10.5291 22.3562 11.6992 20.8761 11.6992H17.302C15.8218 11.6992 14.6224 10.5291 14.6224 9.08515V5.59851C14.6224 4.15454 15.8218 2.9845 17.302 2.9845Z" fill="#27FFE3"/>
<path fill-rule="evenodd" clip-rule="evenodd" d="M5.12401 2.9845H8.69809C10.1783 2.9845 11.3776 4.15454 11.3776 5.59851V9.08515C11.3776 10.5291 10.1783 11.6992 8.69809 11.6992H5.12401C3.64384 11.6992 2.44446 10.5291 2.44446 9.08515V5.59851C2.44446 4.15454 3.64384 2.9845 5.12401 2.9845ZM5.12401 14.692H8.69809C10.1783 14.692 11.3776 15.862 11.3776 17.306V20.7927C11.3776 22.2356 10.1783 23.4067 8.69809 23.4067H5.12401C3.64384 23.4067 2.44446 22.2356 2.44446 20.7927V17.306C2.44446 15.862 3.64384 14.692 5.12401 14.692ZM20.876 14.692H17.302C15.8218 14.692 14.6224 15.862 14.6224 17.306V20.7927C14.6224 22.2356 15.8218 23.4067 17.302 23.4067H20.876C22.3562 23.4067 23.5556 22.2356 23.5556 20.7927V17.306C23.5556 15.862 22.3562 14.692 20.876 14.692Z" fill="#27FFE3"/>
</svg>
