<svg width="24" height="25" viewBox="0 0 24 25" fill="none" xmlns="http://www.w3.org/2000/svg">
<path fill-rule="evenodd" clip-rule="evenodd" d="M21.4912 5.96073V8.82288C21.5006 9.60109 21.2068 10.3512 20.6743 10.9083C20.1419 11.4653 19.4145 11.7835 18.6522 11.793H17.4884C17.0941 11.7499 16.7951 11.4103 16.7951 11.0055C16.7951 10.6007 17.0941 10.261 17.4884 10.218H18.6169C18.9739 10.2156 19.3152 10.0679 19.5651 9.80772C19.8151 9.54752 19.953 9.19627 19.9483 8.83188V5.96073C19.9388 5.21419 19.3482 4.61136 18.6169 4.60166H15.8044C15.0691 4.60166 14.4731 5.21014 14.4731 5.96073V10.254C14.4587 10.6893 14.1062 11.0331 13.6796 11.028C13.4746 11.0233 13.2799 10.935 13.1391 10.7828C12.9983 10.6306 12.923 10.4272 12.9302 10.218V5.96073C12.9278 5.18099 13.2296 4.43236 13.7689 3.88015C14.3082 3.32794 15.0406 3.01757 15.8044 3.01758H18.6169C20.192 3.05576 21.4586 4.35273 21.4912 5.96073ZM8.19559 3.01758H5.38306C3.7948 3.0274 2.50963 4.33936 2.5 5.96073V8.83189C2.50967 10.4518 3.79622 11.7611 5.38306 11.766H8.19559C8.95942 11.7684 9.69276 11.4604 10.2337 10.9098C10.7746 10.3593 11.0787 9.61163 11.0787 8.83189V5.96073C11.0738 4.33733 9.78585 3.02252 8.19559 3.01758ZM9.52688 8.83193C9.53158 9.19632 9.39368 9.54756 9.14375 9.80777C8.89383 10.068 8.55253 10.2156 8.19556 10.218H5.38303C5.02074 10.2254 4.67115 10.0818 4.41492 9.82021C4.1587 9.55865 4.01798 9.20177 4.02526 8.83193V5.96078C4.02519 5.5956 4.16907 5.24576 4.4245 4.9901C4.67992 4.73443 5.02538 4.59445 5.38303 4.60171H8.19556C8.92883 4.60662 9.52207 5.21223 9.52688 5.96078V8.83193ZM15.8043 13.2691H18.6169C20.2037 13.274 21.4903 14.5834 21.4999 16.2033V19.0744C21.4903 20.6958 20.2051 22.0078 18.6169 22.0176H15.8043C14.2175 22.0077 12.9349 20.6943 12.9301 19.0744V16.2033C12.9301 14.5828 14.2169 13.2691 15.8043 13.2691ZM19.5609 20.0382C19.8111 19.7828 19.9506 19.4357 19.9482 19.0745V16.2033C19.9482 15.8429 19.808 15.4972 19.5583 15.2423C19.3086 14.9874 18.97 14.8443 18.6169 14.8443H15.8044C15.0691 14.8443 14.4731 15.4527 14.4731 16.2033V19.0745C14.4707 19.4357 14.6102 19.7828 14.8604 20.0382C15.1106 20.2936 15.4506 20.436 15.8044 20.4336H18.6169C18.9707 20.436 19.3107 20.2936 19.5609 20.0382ZM2.5 19.0654V16.2033C2.5 15.4235 2.80403 14.6758 3.34496 14.1253C3.8859 13.5748 4.61924 13.2667 5.38306 13.2691H6.53805C6.83336 13.2368 7.12081 13.3795 7.27835 13.6365C7.4359 13.8935 7.4359 14.2198 7.27835 14.4768C7.12081 14.7338 6.83336 14.8765 6.53805 14.8442H5.38306C4.64635 14.8442 4.04777 15.4512 4.04292 16.2033V19.0384C4.06166 19.7844 4.65217 20.3833 5.38306 20.3975H8.21322C8.56784 20.3999 8.90874 20.2578 9.16032 20.0026C9.4119 19.7475 9.55337 19.4004 9.55336 19.0384V14.7812C9.49586 14.4633 9.63341 14.1416 9.90087 13.9685C10.1683 13.7953 10.512 13.8055 10.7692 13.9942C11.0263 14.1829 11.1453 14.5122 11.0698 14.8262V19.0654C11.0698 20.6909 9.77905 22.0086 8.18677 22.0086H5.38306C3.80456 21.9751 2.53275 20.6768 2.5 19.0654Z" fill="white"/>
</svg>
