<svg width="10" height="8" viewBox="0 0 10 8" fill="none" xmlns="http://www.w3.org/2000/svg">
<path d="M7.57131 2C7.41351 2 7.28559 1.87209 7.28559 1.71428V0H3.85702C3.38363 0 2.99988 0.383755 2.99988 0.857142V7.14286C2.99988 7.61624 3.38363 8 3.85702 8H8.42845C8.90184 8 9.28559 7.61624 9.28559 7.14286V2H7.57131Z" fill="white" fill-opacity="0.4"/>
<path d="M7.85706 0.16748V1.42862H9.11821L7.85706 0.16748Z" fill="white" fill-opacity="0.4"/>
<path d="M3.81934 2.69532V2.10107V2.10043C3.81965 1.95576 3.88473 1.81884 3.9967 1.72725L3.99671 1.72725C4.20337 1.5582 4.50796 1.58866 4.67704 1.79532C4.67704 1.79532 4.67704 1.79533 4.67705 1.79533L6.32848 3.81365L6.32881 3.81406C6.47933 3.99868 6.47295 4.26538 6.31383 4.44259L6.31359 4.44285L4.66216 6.27771L4.66204 6.27785C4.57043 6.37951 4.43998 6.43766 4.30299 6.4377L3.81934 2.69532ZM3.81934 2.69532C3.28197 2.64147 2.85335 2.49398 2.51711 2.26385C2.12156 1.99312 1.82879 1.59095 1.64199 1.0306L1.64192 1.03038C1.57601 0.833183 1.39143 0.700245 1.18356 0.700161L1.18344 1.00016C1.17355 1.00013 1.16366 1.00094 1.1539 1.00255M3.81934 2.69532L4.30295 6.4377C4.03593 6.43776 3.81943 6.22136 3.81934 5.95436V5.95426V5.3045C1.95687 5.05173 0.699955 3.35234 0.699944 1.18365C0.699944 0.946856 0.871425 0.744957 1.105 0.706559C1.1052 0.706526 1.10539 0.706494 1.10559 0.706462L1.1539 1.00255M1.1539 1.00255C1.06513 1.01703 0.999944 1.09371 0.999944 1.18365C0.999955 3.34437 2.30073 4.9317 4.11934 5.03188M1.1539 1.00255L4.11934 5.03188M4.11934 5.03188V5.95426C4.11937 6.0556 4.20155 6.13773 4.30289 6.1377C4.35486 6.13768 4.40439 6.11562 4.43918 6.07702L4.11934 5.03188Z" fill="white" stroke="#312C4E" stroke-width="0.6"/>
</svg>
