<svg width="21" height="16" viewBox="0 0 21 16" fill="none" xmlns="http://www.w3.org/2000/svg">
<path opacity="0.4" fill-rule="evenodd" clip-rule="evenodd" d="M16.4596 1.93576C18.1403 3.17121 19.5712 4.98121 20.5988 7.24485C20.6756 7.41667 20.6756 7.61758 20.5988 7.78121C18.5436 12.3085 14.8846 15.0176 10.8127 15.0176H10.8031C6.74073 15.0176 3.08174 12.3085 1.02656 7.78121C0.949726 7.61758 0.949726 7.41667 1.02656 7.24485C3.08174 2.71667 6.74073 0.0175781 10.8031 0.0175781H10.8127C12.8487 0.0175781 14.779 0.690305 16.4596 1.93576ZM6.97138 7.51757C6.97138 9.51757 8.69044 11.1448 10.8128 11.1448C12.9257 11.1448 14.6447 9.51757 14.6447 7.51757C14.6447 5.50848 12.9257 3.88121 10.8128 3.88121C8.69044 3.88121 6.97138 5.50848 6.97138 7.51757Z" fill="#27DAE1"/>
<path d="M13.2058 7.51491C13.2058 8.76037 12.1302 9.77855 10.8145 9.77855C9.48918 9.77855 8.41357 8.76037 8.41357 7.51491C8.41357 7.36037 8.43278 7.21582 8.46159 7.07037H8.50961C9.57562 7.07037 10.4399 6.27037 10.4784 5.26946C10.584 5.25219 10.6992 5.24219 10.8145 5.24219C12.1302 5.24219 13.2058 6.26037 13.2058 7.51491Z" fill="#27DAE1"/>
</svg>
