<svg width="16" height="16" viewBox="0 0 16 16" fill="none" xmlns="http://www.w3.org/2000/svg">
<path fill-rule="evenodd" clip-rule="evenodd" d="M0.592651 7.99945C0.592651 3.9113 3.91117 0.592041 8.00006 0.592041C12.0964 0.592041 15.4075 3.9113 15.4075 7.99945C15.4075 12.0891 12.0964 15.4069 8.00006 15.4069C3.91117 15.4069 0.592651 12.0891 0.592651 7.99945ZM7.34823 5.19202C7.34823 4.8372 7.64453 4.54016 8.00008 4.54016C8.35564 4.54016 8.64453 4.8372 8.64453 5.19202V8.46609C8.64453 8.82239 8.35564 9.11053 8.00008 9.11053C7.64453 9.11053 7.34823 8.82239 7.34823 8.46609V5.19202ZM8.00748 11.4669C7.64452 11.4669 7.35563 11.1706 7.35563 10.815C7.35563 10.4594 7.64452 10.1706 8.00007 10.1706C8.36304 10.1706 8.65192 10.4594 8.65192 10.815C8.65192 11.1706 8.36304 11.4669 8.00748 11.4669Z" fill="white"/>
</svg>
