<svg width="26" height="26" viewBox="0 0 26 26" fill="none" xmlns="http://www.w3.org/2000/svg">
<path fill-rule="evenodd" clip-rule="evenodd" d="M8.42333 3.0376H17.5739C21.1512 3.0376 23.5547 5.4658 23.5547 9.07849V17.4189C23.5547 21.0316 21.1502 23.4598 17.5729 23.4598H11.894C11.457 23.4598 11.1023 23.1167 11.1023 22.694C11.1023 22.2712 11.457 21.9281 11.894 21.9281H17.5729C20.2445 21.9281 21.9714 20.1586 21.9714 17.4189V9.07849C21.9714 6.33885 20.2445 4.56926 17.5739 4.56926H8.42333C5.75277 4.56926 4.02694 6.33885 4.02694 9.07849V17.4189C4.02694 20.1586 5.75277 21.9281 8.42333 21.9281C8.86033 21.9281 9.21499 22.2712 9.21499 22.694C9.21499 23.1167 8.86033 23.4598 8.42333 23.4598C4.84605 23.4598 2.4436 21.0316 2.4436 17.4189V9.07849C2.4436 5.4658 4.84605 3.0376 8.42333 3.0376ZM7.1588 12.1588C7.33824 11.7728 7.8048 11.6002 8.20591 11.7748C8.60491 11.9474 8.78225 12.4008 8.6028 12.7867C8.53524 12.9328 8.50147 13.088 8.50147 13.2483C8.50147 13.8691 9.02291 14.3736 9.66363 14.3736C10.3054 14.3736 10.8269 13.8691 10.8269 13.2483C10.8269 12.6285 10.3054 12.124 9.66363 12.124C9.22663 12.124 8.87197 11.781 8.87197 11.3582C8.87197 10.9355 9.22663 10.5924 9.66363 10.5924C10.9018 10.5924 11.9373 11.3929 12.2793 12.4825H18.2875C18.7245 12.4825 19.0792 12.8256 19.0792 13.2483V15.1394C19.0792 15.5621 18.7245 15.9052 18.2875 15.9052C17.8505 15.9052 17.4959 15.5621 17.4959 15.1394V14.0141H16.093V15.1394C16.093 15.5621 15.7384 15.9052 15.3014 15.9052C14.8644 15.9052 14.5097 15.5621 14.5097 15.1394V14.0141H12.2793C11.9373 15.1047 10.9018 15.9052 9.66363 15.9052C8.14997 15.9052 6.91813 14.7136 6.91813 13.2483C6.91813 12.8695 6.99836 12.5039 7.1588 12.1588Z" fill="white"/>
</svg>
