<svg width="12" height="12" viewBox="0 0 12 12" fill="none" xmlns="http://www.w3.org/2000/svg">
<g clip-path="url(#clip0)">
<path d="M1.79096 8.42992C1.27796 7.54138 1.58322 6.40213 2.47176 5.88913L4.55024 4.68912L3.98024 3.70186L1.90179 4.90185C0.467656 5.72985 -0.0242994 7.56578 0.8037 8.99991C1.6317 10.434 3.46765 10.926 4.90178 10.098L6.98023 8.898L6.41024 7.91074L4.33179 9.11073C3.44325 9.62373 2.30396 9.31846 1.79096 8.42992Z" fill="white"/>
<path d="M7.7783 4.2803L3.62137 6.6803L4.22137 7.71954L8.37831 5.31953L7.7783 4.2803Z" fill="white"/>
<path d="M7.09792 1.90193L5.01947 3.10193L5.58947 4.08919L7.66792 2.88919C8.55646 2.37619 9.69571 2.68146 10.2087 3.57C10.7217 4.45854 10.4165 5.59782 9.52792 6.11081L7.44947 7.31081L8.01946 8.29807L10.0979 7.09807C11.5321 6.27008 12.024 4.43413 11.196 2.99999C10.368 1.56585 8.53206 1.07393 7.09792 1.90193Z" fill="white"/>
</g>
<defs>
<clipPath id="clip0">
<rect width="12" height="12" fill="white"/>
</clipPath>
</defs>
</svg>
