<svg width="14" height="16" viewBox="0 0 14 16" fill="none" xmlns="http://www.w3.org/2000/svg">
<path d="M12.7549 7.73741C12.2138 7.10552 11.9679 6.55794 11.9679 5.62764V5.31133C11.9679 4.09904 11.6889 3.31795 11.0822 2.53686C10.1473 1.32382 8.57328 0.592712 7.03243 0.592712H6.96691C5.45844 0.592712 3.93379 1.29025 2.98263 2.45405C2.34287 3.2508 2.03146 4.06546 2.03146 5.31133V5.62764C2.03146 6.55794 1.80177 7.10552 1.24447 7.73741C0.834412 8.20293 0.703369 8.80124 0.703369 9.44879C0.703369 10.0971 0.916129 10.7111 1.34312 11.2102C1.90042 11.8085 2.68741 12.1904 3.49133 12.2568C4.65526 12.3896 5.81918 12.4396 7.00003 12.4396C8.18015 12.4396 9.34408 12.3561 10.5087 12.2568C11.3119 12.1904 12.0989 11.8085 12.6562 11.2102C13.0825 10.7111 13.296 10.0971 13.296 9.44879C13.296 8.80124 13.1649 8.20293 12.7549 7.73741Z" fill="white"/>
<path opacity="0.4" d="M8.4876 13.3545C8.1173 13.2754 5.86086 13.2754 5.49056 13.3545C5.174 13.4276 4.83167 13.5977 4.83167 13.9707C4.85007 14.3265 5.05841 14.6406 5.347 14.8398L5.34626 14.8406C5.71951 15.1315 6.15755 15.3165 6.6162 15.3829C6.86061 15.4165 7.10945 15.415 7.3627 15.3829C7.82061 15.3165 8.25865 15.1315 8.6319 14.8406L8.63116 14.8398C8.91975 14.6406 9.12809 14.3265 9.1465 13.9707C9.1465 13.5977 8.80417 13.4276 8.4876 13.3545Z" fill="white"/>
</svg>
