<svg width="8" height="9" viewBox="0 0 8 9" fill="none" xmlns="http://www.w3.org/2000/svg">
<g clip-path="url(#clip0)">
<path d="M2.83334 0.517578H1.16669C0.891015 0.517578 0.666687 0.741906 0.666687 1.01758V8.01758C0.666687 8.29325 0.891015 8.51758 1.16669 8.51758H2.83336C3.10903 8.51758 3.33336 8.29325 3.33336 8.01758V1.01758C3.33334 0.741906 3.10901 0.517578 2.83334 0.517578Z" fill="white"/>
<path d="M6.83334 0.517578H5.16669C4.89102 0.517578 4.66669 0.741906 4.66669 1.01758V8.01758C4.66669 8.29325 4.89102 8.51758 5.16669 8.51758H6.83336C7.10903 8.51758 7.33336 8.29325 7.33336 8.01758V1.01758C7.33334 0.741906 7.10902 0.517578 6.83334 0.517578Z" fill="white"/>
</g>
<defs>
<clipPath id="clip0">
<rect width="8" height="8" fill="white" transform="translate(0 0.517578)"/>
</clipPath>
</defs>
</svg>
