<svg width="26" height="26" viewBox="0 0 26 26" fill="none" xmlns="http://www.w3.org/2000/svg">
<path fill-rule="evenodd" clip-rule="evenodd" d="M8.83837 8.15373C8.83837 5.94819 10.7046 4.15414 12.999 4.15414C15.2933 4.15414 17.1596 5.94819 17.1596 8.15373C17.1596 10.3582 15.2933 12.1523 12.999 12.1523C10.7046 12.1523 8.83837 10.3582 8.83837 8.15373ZM7.31196 8.15365C7.31196 11.1669 9.86335 13.6195 12.999 13.6195C16.1345 13.6195 18.6849 11.1669 18.6849 8.15365C18.6849 5.13941 16.1345 2.68677 12.999 2.68677C9.86335 2.68677 7.31196 5.13941 7.31196 8.15365ZM11.9198 23.0936C12.2735 23.1038 12.6336 23.1089 12.999 23.1089C16.6243 23.1089 21.4435 22.7199 21.4435 19.3615C21.4435 15.5927 15.0873 15.5927 12.999 15.5927C9.37374 15.5927 4.55457 15.9818 4.55457 19.3411C4.55457 20.3469 5.04105 21.7039 7.35876 22.4585C7.75921 22.5912 8.19046 22.3819 8.32642 21.999C8.46132 21.6161 8.24782 21.2005 7.84843 21.0708C6.26257 20.5542 6.07988 19.8363 6.07988 19.3411C6.07988 17.8269 8.40821 17.059 12.999 17.059C17.5898 17.059 19.9181 17.834 19.9181 19.3615C19.9181 20.8748 17.5898 21.6416 12.999 21.6416C12.6485 21.6416 12.3033 21.6375 11.9634 21.6283C11.5555 21.6314 11.1922 21.9357 11.1805 22.34C11.1678 22.7454 11.4992 23.0834 11.9198 23.0936Z" fill="white"/>
</svg>
