<svg width="20" height="21" viewBox="0 0 20 21" fill="none" xmlns="http://www.w3.org/2000/svg">
<path fill-rule="evenodd" clip-rule="evenodd" d="M15.0108 13.1186C15.4248 13.1186 15.7608 12.7826 15.7608 12.3686V10.5166C15.7608 10.1026 15.4248 9.7666 15.0108 9.7666H9.31876C8.99476 8.6996 8.01276 7.9156 6.84076 7.9156C5.40676 7.9156 4.23976 9.0826 4.23976 10.5166C4.23976 11.9516 5.40676 13.1186 6.84076 13.1186C8.01276 13.1186 8.99476 12.3346 9.31876 11.2666H11.4308V12.3686C11.4308 12.7826 11.7668 13.1186 12.1808 13.1186C12.5948 13.1186 12.9308 12.7826 12.9308 12.3686V11.2666H14.2608V12.3686C14.2608 12.7826 14.5968 13.1186 15.0108 13.1186ZM5.66576 0.516602H14.3348C17.7228 0.516602 19.9998 2.8946 19.9998 6.4336V14.6006C19.9998 18.1396 17.7228 20.5166 14.3338 20.5166H5.66576C2.27676 20.5166 -0.000244141 18.1396 -0.000244141 14.6006V6.4336C-0.000244141 2.8946 2.27676 0.516602 5.66576 0.516602ZM5.73886 10.5175C5.73886 9.9095 6.23386 9.4155 6.84086 9.4155C7.44786 9.4155 7.94286 9.9095 7.94286 10.5175C7.94286 11.1245 7.44786 11.6185 6.84086 11.6185C6.23386 11.6185 5.73886 11.1245 5.73886 10.5175Z" fill="#27FFE3"/>
</svg>
