<svg width="26" height="25" viewBox="0 0 26 25" fill="none" xmlns="http://www.w3.org/2000/svg">
<path fill-rule="evenodd" clip-rule="evenodd" d="M13.4159 21.4922H19.1824C21.5932 21.4922 23.5545 19.6123 23.5545 17.3004V14.5686C23.5545 14.1497 23.1998 13.8097 22.7628 13.8097C21.8962 13.8097 21.1911 13.1339 21.1911 12.3032C21.1911 11.4725 21.8962 10.7967 22.7628 10.7967C22.9729 10.7967 23.1745 10.7167 23.3223 10.5741C23.4711 10.4314 23.5545 10.2382 23.5545 10.0378L23.5534 7.30399C23.5534 4.99207 21.5911 3.11218 19.1802 3.11218H6.81758C4.40669 3.11218 2.44547 4.99207 2.44547 7.30399L2.44336 10.1258C2.44336 10.3262 2.52675 10.5194 2.67558 10.6621C2.82336 10.8048 3.02497 10.8847 3.23503 10.8847C4.13119 10.8847 4.80675 11.4938 4.80675 12.3032C4.80675 13.1339 4.10164 13.8097 3.23503 13.8097C2.79803 13.8097 2.44336 14.1497 2.44336 14.5686V17.3004C2.44336 19.6123 4.40458 21.4922 6.81653 21.4922H8.70597C9.14297 21.4922 9.49764 21.1522 9.49764 20.7334C9.49764 20.3145 9.14297 19.9745 8.70597 19.9745H6.81653C5.27858 19.9745 4.02669 18.7746 4.02669 17.3004V15.2313C5.38519 14.8944 6.39008 13.7096 6.39008 12.3032C6.39008 10.912 5.40103 9.77577 4.02775 9.45605L4.0288 7.30399C4.0288 5.82983 5.27964 4.62985 6.81758 4.62985H19.1802C20.7182 4.62985 21.9701 5.82983 21.9701 7.30399L21.9711 9.37511C20.6126 9.71203 19.6077 10.8968 19.6077 12.3032C19.6077 13.7096 20.6137 14.8944 21.9711 15.2313V17.3004C21.9711 18.7746 20.7203 19.9745 19.1824 19.9745H13.4159C12.9789 19.9745 12.6242 20.3145 12.6242 20.7334C12.6242 21.1522 12.9789 21.4922 13.4159 21.4922ZM16.9988 11.2069C17.1453 11.3559 17.2232 11.5525 17.2211 11.7605C17.218 11.9684 17.1349 12.163 16.9843 12.3078L15.7524 13.505L16.0432 15.1936C16.1097 15.5785 15.9539 15.9613 15.636 16.19C15.3171 16.4197 14.9058 16.4476 14.5578 16.2665L13.035 15.4719L11.5123 16.2676C11.3658 16.3462 11.2007 16.3866 11.0355 16.3866C10.8194 16.3866 10.6117 16.3183 10.4351 16.19C10.1183 15.9613 9.96146 15.5785 10.0279 15.1936L10.3198 13.505L9.08685 12.3078C8.80536 12.0357 8.70668 11.6353 8.82717 11.2628C8.94974 10.8913 9.26655 10.6254 9.65504 10.5706L11.3565 10.3233L12.1189 8.78572C12.2913 8.43599 12.6424 8.21871 13.034 8.21767C13.4277 8.21767 13.7788 8.43392 13.9533 8.78365L14.7843 10.3626C14.9847 10.7454 14.8372 11.2172 14.4539 11.4159C14.2701 11.5132 14.0582 11.5308 13.8598 11.4707C13.6593 11.4087 13.4962 11.2731 13.3986 11.0889L13.0496 10.4267L12.577 11.3807C12.4627 11.6104 12.2435 11.7708 11.988 11.807L10.9659 11.955L11.7055 12.6751C11.8904 12.8531 11.9745 13.1107 11.9309 13.3642L11.7564 14.3793L12.6725 13.9002C12.9011 13.7812 13.1732 13.7812 13.3996 13.9002L14.3158 14.3793L14.1413 13.3642C14.0977 13.1107 14.1818 12.8531 14.3657 12.6741L15.8926 11.1924C16.0411 11.0496 16.2416 10.9565 16.4452 10.971C16.655 10.9731 16.8513 11.0558 16.9988 11.2069Z" fill="white"/>
</svg>
