<svg width="20" height="19" viewBox="0 0 20 19" fill="none" xmlns="http://www.w3.org/2000/svg">
<path fill-rule="evenodd" clip-rule="evenodd" d="M17.761 9.51857C17.761 10.3321 18.429 10.994 19.25 10.994C19.664 10.994 20 11.3269 20 11.7371V14.4134C20 16.6766 18.142 18.5176 15.858 18.5176H4.143C1.859 18.5176 0 16.6766 0 14.4134V11.7371C0 11.3269 0.336 10.994 0.75 10.994C1.572 10.994 2.24 10.3321 2.24 9.51857C2.24 8.72588 1.599 8.12938 0.75 8.12938C0.551 8.12938 0.361 8.0511 0.22 7.91139C0.079 7.77168 0 7.58242 0 7.38623L0.002 4.62272C0.002 2.35959 1.86 0.517578 4.144 0.517578H15.856C18.14 0.517578 19.999 2.35959 19.999 4.62272L20 7.30003C20 7.49622 19.921 7.68647 19.781 7.82519C19.64 7.9649 19.45 8.04318 19.25 8.04318C18.429 8.04318 17.761 8.70507 17.761 9.51857ZM12.252 10.1656L13.431 9.02809C13.636 8.8319 13.707 8.54257 13.618 8.27504C13.53 8.0075 13.3 7.81726 13.022 7.77861L11.393 7.54279L10.664 6.08028C10.539 5.8286 10.285 5.67204 10.002 5.67105H10C9.718 5.67105 9.464 5.82761 9.337 6.07929L8.608 7.54279L6.982 7.77762C6.701 7.81726 6.471 8.0075 6.382 8.27504C6.294 8.54257 6.365 8.8319 6.569 9.02809L7.748 10.1656L7.47 11.7738C7.422 12.0512 7.535 12.3267 7.765 12.4921C7.895 12.5843 8.046 12.6319 8.199 12.6319C8.316 12.6319 8.434 12.6031 8.542 12.5466L10 11.7876L11.455 12.5447C11.707 12.6784 12.006 12.6576 12.235 12.4912C12.466 12.3267 12.579 12.0512 12.531 11.7738L12.252 10.1656Z" fill="#27FFE3"/>
</svg>
