<svg width="26" height="26" viewBox="0 0 26 26" fill="none" xmlns="http://www.w3.org/2000/svg">
<path fill-rule="evenodd" clip-rule="evenodd" d="M9.77187 7.71736C8.90288 8.18328 7.83695 8.17658 6.97459 7.6998L6.93662 7.66392C6.54859 7.43607 6.42957 6.9542 6.67077 6.58765C6.91198 6.2211 7.42207 6.10867 7.8101 6.33652C7.9833 6.432 8.17928 6.48445 8.37976 6.48899C8.68703 6.50114 8.9868 6.39734 9.21299 6.2005C9.43917 6.00365 9.57321 5.72992 9.58554 5.43963C9.5797 3.9811 10.8051 2.78374 12.3484 2.73999H13.6491C15.2222 2.73999 16.4974 3.94465 16.4974 5.43066C16.4949 5.61981 16.5474 5.80597 16.6493 5.9688C16.8006 6.22088 17.0522 6.40537 17.3483 6.48118C17.6443 6.55698 17.9601 6.51782 18.2254 6.3724C19.562 5.68506 21.2344 6.11163 22.0232 7.34104C22.2411 7.71622 22.1071 8.18704 21.7193 8.40834C21.3253 8.62085 20.8237 8.49742 20.5895 8.13031C20.2677 7.6126 19.5644 7.4365 19.0134 7.73567C18.1416 8.18667 17.0839 8.17565 16.2227 7.70662C15.3616 7.23758 14.8216 6.37838 14.7979 5.43963C14.8082 5.14565 14.6918 4.8603 14.4752 4.64895C14.2586 4.43761 13.9605 4.31836 13.6491 4.31852H12.3484C12.0362 4.31843 11.7372 4.4374 11.5191 4.64846C11.3011 4.85952 11.1824 5.1448 11.1901 5.43963C11.1813 6.3835 10.6409 7.25145 9.77187 7.71736ZM11.1902 20.4985C11.1954 21.0993 11.7125 21.5838 12.3485 21.5837L12.339 21.6017C12.6341 21.6017 12.9068 21.7504 13.0544 21.9918C13.2019 22.2332 13.2019 22.5307 13.0544 22.7721C12.9068 23.0135 12.6341 23.1623 12.339 23.1623C10.7659 23.1623 9.49071 21.9576 9.49071 20.4716C9.49327 20.2825 9.44072 20.0963 9.3388 19.9335C9.02024 19.4125 8.31621 19.2322 7.76274 19.5299C6.42616 20.2172 4.75372 19.7906 3.96499 18.5612L3.31938 17.4939C2.59177 16.2313 3.04333 14.6514 4.34477 13.9064C4.51726 13.8105 4.66104 13.6747 4.76252 13.5117C4.95293 13.261 5.02136 12.9456 4.9507 12.6443C4.88003 12.3431 4.67695 12.0845 4.39224 11.9332C3.0908 11.1881 2.63924 9.60823 3.36685 8.34563C3.48859 8.17273 3.67827 8.05281 3.89389 8.01241C4.10951 7.97201 4.33328 8.01447 4.51567 8.13038C4.87595 8.36181 4.98041 8.81969 4.75302 9.17077C4.43878 9.69092 4.62999 10.3532 5.18027 10.6506C5.59371 10.89 5.93402 11.2269 6.16768 11.6283C6.89529 12.8909 6.44373 14.4707 5.14229 15.2158C4.59201 15.5132 4.4008 16.1755 4.71505 16.6957L5.37016 17.763C5.51922 18.0173 5.77166 18.2032 6.06913 18.2777C6.36661 18.3522 6.68337 18.3088 6.94622 18.1576C7.37004 17.9254 7.85195 17.8046 8.34189 17.8078C9.91497 17.8078 11.1902 19.0125 11.1902 20.4985ZM21.6435 13.8974C21.3783 13.753 21.185 13.5146 21.1066 13.2351C21.0281 12.9556 21.071 12.6581 21.2258 12.4085C21.3272 12.2456 21.471 12.1098 21.6435 12.0139C22.0332 11.7928 22.1604 11.3158 21.9283 10.9466C21.6977 10.5822 21.2053 10.4521 20.808 10.6506C19.5066 11.3957 19.055 12.9756 19.7826 14.2382C20.0137 14.6793 20.3726 15.0494 20.8175 15.3055C21.0821 15.4481 21.2752 15.6849 21.3537 15.963C21.4322 16.241 21.3895 16.5372 21.2353 16.7854L20.5896 17.8527C20.4342 18.1024 20.1824 18.2857 19.8871 18.3639C19.5912 18.4384 19.276 18.3964 19.0136 18.2473C18.1402 17.7956 17.0806 17.8076 16.2189 18.2787C15.3572 18.7499 14.8185 19.612 14.7981 20.5523C14.8435 20.9534 15.2018 21.2576 15.6288 21.2576C16.0558 21.2576 16.4141 20.9534 16.4596 20.5523C16.4517 20.1605 16.67 19.7955 17.0294 19.5997C17.3887 19.4038 17.8324 19.408 18.1876 19.6106C19.5241 20.2979 21.1966 19.8713 21.9853 18.6419L22.6309 17.5746C23.4281 16.3009 22.987 14.6581 21.6435 13.8974ZM12.9942 9.58333C11.5494 9.58333 10.2471 10.4059 9.69513 11.6672C9.14314 12.9284 9.45031 14.3796 10.4733 15.3434C11.4962 16.3072 13.0332 16.5935 14.3669 16.0687C15.7006 15.5439 16.5679 14.3114 16.5641 12.9467C16.5641 12.0531 16.1876 11.1963 15.5179 10.5652C14.8481 9.93424 13.9401 9.58094 12.9942 9.58333ZM12.9943 14.7494C11.9455 14.7494 11.0954 13.9463 11.0954 12.9557C11.0954 11.965 11.9455 11.1619 12.9943 11.1619C14.043 11.1619 14.8931 11.965 14.8931 12.9557C14.8931 13.9463 14.043 14.7494 12.9943 14.7494Z" fill="white"/>
</svg>
