<svg width="28" height="29" viewBox="0 0 28 29" fill="none" xmlns="http://www.w3.org/2000/svg">
<g filter="url(#filter0_d)">
<path fill-rule="evenodd" clip-rule="evenodd" d="M22.4022 12.0976C22.7599 12.2876 23.0358 12.5876 23.23 12.8876C23.6081 13.5076 23.5775 14.2676 23.2096 14.9376L22.4942 16.1376C22.1161 16.7776 21.4109 17.1776 20.6853 17.1776C20.3277 17.1776 19.9291 17.0776 19.6021 16.8776C19.3364 16.7076 19.0298 16.6476 18.7027 16.6476C17.691 16.6476 16.8428 17.4776 16.8121 18.4676C16.8121 19.6176 15.8719 20.5176 14.6967 20.5176H13.3068C12.1213 20.5176 11.1811 19.6176 11.1811 18.4676C11.1607 17.4776 10.3125 16.6476 9.30073 16.6476C8.96348 16.6476 8.6569 16.7076 8.40141 16.8776C8.07438 17.0776 7.6656 17.1776 7.31813 17.1776C6.58232 17.1776 5.87717 16.7776 5.49905 16.1376L4.7939 14.9376C4.41577 14.2876 4.39533 13.5076 4.77346 12.8876C4.93697 12.5876 5.24356 12.2876 5.59102 12.0976C5.87717 11.9576 6.06112 11.7276 6.23486 11.4576C6.74584 10.5976 6.43925 9.46758 5.57059 8.95758C4.55885 8.38758 4.23182 7.11758 4.81434 6.12758L5.49905 4.94758C6.09178 3.95758 7.35901 3.60758 8.38097 4.18758C9.27007 4.66758 10.4249 4.34758 10.9461 3.49758C11.1096 3.21758 11.2016 2.91758 11.1811 2.61758C11.1607 2.22758 11.2731 1.85758 11.4673 1.55758C11.8454 0.937578 12.5301 0.537578 13.2761 0.517578H14.7171C15.4734 0.517578 16.1581 0.937578 16.5362 1.55758C16.7201 1.85758 16.8428 2.22758 16.8121 2.61758C16.7917 2.91758 16.8837 3.21758 17.0472 3.49758C17.5684 4.34758 18.7232 4.66758 19.6225 4.18758C20.6342 3.60758 21.9117 3.95758 22.4942 4.94758L23.1789 6.12758C23.7716 7.11758 23.4446 8.38758 22.4227 8.95758C21.554 9.46758 21.2474 10.5976 21.7686 11.4576C21.9321 11.7276 22.1161 11.9576 22.4022 12.0976ZM11.1096 10.5276C11.1096 12.0976 12.4075 13.3476 14.012 13.3476C15.6164 13.3476 16.8837 12.0976 16.8837 10.5276C16.8837 8.95758 15.6164 7.69758 14.012 7.69758C12.4075 7.69758 11.1096 8.95758 11.1096 10.5276Z" fill="#27FFE3"/>
</g>
<defs>
<filter id="filter0_d" x="0.499878" y="0.517578" width="27" height="28" filterUnits="userSpaceOnUse" color-interpolation-filters="sRGB">
<feFlood flood-opacity="0" result="BackgroundImageFix"/>
<feColorMatrix in="SourceAlpha" type="matrix" values="0 0 0 0 0 0 0 0 0 0 0 0 0 0 0 0 0 0 127 0"/>
<feOffset dy="4"/>
<feGaussianBlur stdDeviation="2"/>
<feColorMatrix type="matrix" values="0 0 0 0 0 0 0 0 0 0 0 0 0 0 0 0 0 0 0.25 0"/>
<feBlend mode="normal" in2="BackgroundImageFix" result="effect1_dropShadow"/>
<feBlend mode="normal" in="SourceGraphic" in2="effect1_dropShadow" result="shape"/>
</filter>
</defs>
</svg>
