<svg width="9" height="10" viewBox="0 0 9 10" fill="none" xmlns="http://www.w3.org/2000/svg">
<g clip-path="url(#clip0)">
<path d="M8.33785 1.51756C8.33785 2.19067 7.79224 2.73635 7.11912 2.73635C6.446 2.73635 5.90039 2.19067 5.90039 1.51756C5.90039 0.844505 6.446 0.298828 7.11912 0.298828C7.79224 0.298828 8.33785 0.844505 8.33785 1.51756Z" fill="white"/>
<path d="M7.11912 3.0176C6.29185 3.0176 5.61914 2.34483 5.61914 1.51756C5.61914 0.690353 6.29185 0.0175781 7.11912 0.0175781C7.94639 0.0175781 8.6191 0.690353 8.6191 1.51756C8.6191 2.34483 7.94639 3.0176 7.11912 3.0176ZM7.11912 0.580078C6.60201 0.580078 6.18164 1.00085 6.18164 1.51756C6.18164 2.03432 6.60201 2.4551 7.11912 2.4551C7.63623 2.4551 8.0566 2.03432 8.0566 1.51756C8.0566 1.00085 7.63623 0.580078 7.11912 0.580078Z" fill="white"/>
<path d="M8.33785 7.51762C8.33785 8.19067 7.79224 8.73635 7.11912 8.73635C6.446 8.73635 5.90039 8.19067 5.90039 7.51762C5.90039 6.84451 6.446 6.29883 7.11912 6.29883C7.79224 6.29883 8.33785 6.84451 8.33785 7.51762Z" fill="white"/>
<path d="M7.11912 9.0176C6.29185 9.0176 5.61914 8.34483 5.61914 7.51762C5.61914 6.69035 6.29185 6.01758 7.11912 6.01758C7.94639 6.01758 8.6191 6.69035 8.6191 7.51762C8.6191 8.34483 7.94639 9.0176 7.11912 9.0176ZM7.11912 6.58008C6.60201 6.58008 6.18164 7.00085 6.18164 7.51762C6.18164 8.03432 6.60201 8.4551 7.11912 8.4551C7.63623 8.4551 8.0566 8.03432 8.0566 7.51762C8.0566 7.00085 7.63623 6.58008 7.11912 6.58008Z" fill="white"/>
<path d="M3.08791 4.51756C3.08791 5.19067 2.54224 5.73628 1.86912 5.73628C1.19607 5.73628 0.650391 5.19067 0.650391 4.51756C0.650391 3.84444 1.19607 3.29883 1.86912 3.29883C2.54224 3.29883 3.08791 3.84444 3.08791 4.51756Z" fill="white"/>
<path d="M1.86912 6.01753C1.04192 6.01753 0.369141 5.34483 0.369141 4.51756C0.369141 3.69028 1.04192 3.01758 1.86912 3.01758C2.69639 3.01758 3.36916 3.69028 3.36916 4.51756C3.36916 5.34483 2.69639 6.01753 1.86912 6.01753ZM1.86912 3.58008C1.35201 3.58008 0.931641 4.00079 0.931641 4.51756C0.931641 5.03432 1.35201 5.45503 1.86912 5.45503C2.3863 5.45503 2.80666 5.03432 2.80666 4.51756C2.80666 4.00079 2.3863 3.58008 1.86912 3.58008Z" fill="white"/>
<path d="M2.75458 4.33774C2.62405 4.33774 2.4973 4.26983 2.42829 4.14837C2.32591 3.96874 2.38895 3.73961 2.56857 3.63682L6.04814 1.6531C6.22777 1.54996 6.4569 1.613 6.55969 1.79331C6.66207 1.97294 6.59904 2.20207 6.41941 2.30486L2.93977 4.28858C2.88127 4.32195 2.81755 4.33774 2.75458 4.33774Z" fill="white"/>
<path d="M6.23378 7.43142C6.17075 7.43142 6.10703 7.41563 6.04853 7.38225L2.56889 5.39854C2.38926 5.29616 2.3263 5.06702 2.42867 4.88698C2.53064 4.70702 2.76012 4.64364 2.94016 4.74677L6.41979 6.73049C6.59942 6.83287 6.66239 7.062 6.56001 7.24204C6.49066 7.36351 6.3639 7.43142 6.23378 7.43142Z" fill="white"/>
</g>
<defs>
<clipPath id="clip0">
<rect width="9" height="9" fill="white" transform="translate(0 0.0175781)"/>
</clipPath>
</defs>
</svg>
