<svg width="17" height="19" viewBox="0 0 17 19" fill="none" xmlns="http://www.w3.org/2000/svg">
<path opacity="0.4" fill-rule="evenodd" clip-rule="evenodd" d="M12.5636 4.78655C13.7729 5.82982 14.8026 7.35826 15.542 9.26978C15.5973 9.41487 15.5973 9.58452 15.542 9.72271C14.0632 13.5457 11.4302 15.8334 8.50014 15.8334H8.49323C5.57006 15.8334 2.93713 13.5457 1.45827 9.72271C1.40299 9.58452 1.40299 9.41487 1.45827 9.26978C2.93713 5.44598 5.57006 3.16675 8.49323 3.16675H8.50014C9.96519 3.16675 11.3542 3.73483 12.5636 4.78655ZM5.73603 9.5001C5.73603 11.189 6.97302 12.5631 8.50026 12.5631C10.0206 12.5631 11.2576 11.189 11.2576 9.5001C11.2576 7.80353 10.0206 6.42939 8.50026 6.42939C6.97302 6.42939 5.73603 7.80353 5.73603 9.5001Z" fill="white"/>
<path d="M10.2222 9.49756C10.2222 10.5493 9.44819 11.4091 8.50145 11.4091C7.54779 11.4091 6.7738 10.5493 6.7738 9.49756C6.7738 9.36706 6.78762 9.245 6.80836 9.12217H6.84291C7.60998 9.12217 8.23193 8.44661 8.25958 7.6014C8.33559 7.58681 8.41852 7.57837 8.50145 7.57837C9.44819 7.57837 10.2222 8.43817 10.2222 9.49756Z" fill="white"/>
</svg>
