<svg width="18" height="21" viewBox="0 0 18 21" fill="none" xmlns="http://www.w3.org/2000/svg">
<path fill-rule="evenodd" clip-rule="evenodd" d="M4.81 0.517578H13.191C16.28 0.517578 18 2.29758 18 5.34758V15.6776C18 18.7776 16.28 20.5176 13.191 20.5176H4.81C1.77 20.5176 0 18.7776 0 15.6776V5.34758C0 2.29758 1.77 0.517578 4.81 0.517578ZM5.07998 5.17759V5.16759H8.06898C8.49998 5.16759 8.84998 5.51759 8.84998 5.94659C8.84998 6.38759 8.49998 6.73759 8.06898 6.73759H5.07998C4.64898 6.73759 4.29998 6.38759 4.29998 5.95759C4.29998 5.52759 4.64898 5.17759 5.07998 5.17759ZM5.07998 11.2576H12.92C13.35 11.2576 13.7 10.9076 13.7 10.4776C13.7 10.0476 13.35 9.69658 12.92 9.69658H5.07998C4.64898 9.69658 4.29998 10.0476 4.29998 10.4776C4.29998 10.9076 4.64898 11.2576 5.07998 11.2576ZM5.07993 15.8276H12.9199C13.3189 15.7876 13.6199 15.4466 13.6199 15.0476C13.6199 14.6376 13.3189 14.2976 12.9199 14.2576H5.07993C4.77993 14.2276 4.48993 14.3676 4.32993 14.6276C4.16993 14.8776 4.16993 15.2076 4.32993 15.4676C4.48993 15.7176 4.77993 15.8676 5.07993 15.8276Z" fill="#27FFE3"/>
</svg>
