<svg width="26" height="25" viewBox="0 0 26 25" fill="none" xmlns="http://www.w3.org/2000/svg">
<path fill-rule="evenodd" clip-rule="evenodd" d="M8.92222 2.33545H17.0664C20.4583 2.33545 22.4897 4.32808 22.4989 7.65515V17.438C22.4989 20.765 20.4766 22.7577 17.0756 22.7577H14.0606C13.6739 22.7159 13.3813 22.3954 13.3813 22.0138C13.3813 21.6323 13.6739 21.3118 14.0606 21.27H17.0664C19.6586 21.27 20.9638 19.9806 20.9638 17.438V7.65515C20.9638 5.11251 19.6586 3.82316 17.0664 3.82316H8.92222C6.33006 3.82316 5.01559 5.11251 5.01559 7.65515V17.438C5.01559 19.9806 6.33006 21.27 8.92222 21.27C9.30888 21.3118 9.60154 21.6323 9.60154 22.0138C9.60154 22.3954 9.30888 22.7159 8.92222 22.7577C5.53035 22.7577 3.4989 20.765 3.4989 17.438V7.65515C3.4989 4.31907 5.53035 2.33545 8.92222 2.33545ZM9.18888 8.97156H12.0844C12.471 8.92974 12.7637 8.60927 12.7637 8.2277C12.7637 7.84613 12.471 7.52566 12.0844 7.48384H9.18888C8.80223 7.52566 8.50956 7.84613 8.50956 8.2277C8.50956 8.60927 8.80223 8.92974 9.18888 8.97156ZM16.7906 13.2904H9.18878H9.17959C8.79293 13.2486 8.50026 12.9282 8.50026 12.5466C8.50026 12.165 8.79293 11.8446 9.17959 11.8027H16.7906C17.0815 11.7713 17.3651 11.9058 17.5206 12.1489C17.6761 12.3921 17.6761 12.7011 17.5206 12.9442C17.3651 13.1874 17.0815 13.3219 16.7906 13.2904ZM16.7908 17.6092H9.18893H9.17974C8.76345 17.6092 8.42599 17.2782 8.42599 16.8699C8.42599 16.4615 8.76345 16.1305 9.17974 16.1305H16.7908C17.2071 16.1305 17.5445 16.4615 17.5445 16.8699C17.5445 17.2782 17.2071 17.6092 16.7908 17.6092Z" fill="white"/>
</svg>
